<svg width="287" height="290" viewBox="0 0 287 290" fill="none" xmlns="http://www.w3.org/2000/svg">
<g clip-path="url(#clip0_7265_32190)">
<path d="M266.709 180.147C274.752 188.175 279.205 198.922 279.205 210.405C279.205 221.884 274.769 232.636 266.724 240.689C258.681 248.746 247.931 253.199 236.441 253.199C224.983 253.181 214.226 248.752 206.178 240.713L205.965 240.507V150.258H235.044L266.709 180.147Z" fill="#D2DC00"/>
<path d="M199.954 243.715L200.153 243.897C200.069 269.299 179.378 289.955 153.975 290.008C130.599 290.008 110.922 272.498 108.156 249.302V152.028L187.399 231.142L199.954 243.715Z" fill="#00B1A9"/>
<path d="M197.742 150.257V230.57L117.316 150.257H197.742Z" fill="#D2DC00"/>
<path d="M99.5861 98.8525V191.172H55.1519C29.7507 191.126 9.04788 170.393 9 144.986C9.04788 119.596 29.7507 98.8889 55.1519 98.8525H99.5861Z" fill="#00B1A9"/>
<path d="M266.61 49.8006C274.671 57.869 279.111 68.6819 279.111 80.2613C279.111 91.6387 274.69 102.343 266.663 110.373L235.046 140.301H205.969V49.9355L206.047 49.859C214.099 41.7896 224.866 37.3361 236.366 37.3361C247.827 37.3361 258.566 41.7855 266.61 49.8006Z" fill="#D2DC00"/>
<path d="M197.744 59.8822V140.301H117.457L197.744 59.8822Z" fill="#D2DC00"/>
<path d="M200.153 44.466V46.552L199.953 46.7374L108.156 136.977V40.7162C110.922 17.4934 130.599 0.00213645 153.974 0.00213645H153.991C179.394 0.0510316 200.103 19.0507 200.153 44.466Z" fill="#00B1A9"/>
</g>
<defs>
<clipPath id="clip0_7265_32190">
<rect width="287" height="290" fill="white"/>
</clipPath>
</defs>
</svg>
