<svg width="370" height="370" viewBox="0 0 370 370" fill="none" xmlns="http://www.w3.org/2000/svg">
<circle cx="185" cy="185" r="185" fill="#EF3A3A"/>
<path fill-rule="evenodd" clip-rule="evenodd" d="M84.9166 109.698C74.1205 123.367 67.5789 142.042 67.5789 161.54C67.5789 172.853 69.5346 183.677 72.9772 193.984H137.202L162.255 149.67L177.911 204.184L197.067 179.679H245.053V194.393H204.301L171.695 236.102L157.771 187.615L145.851 208.698H38V193.984H57.4916C54.4927 183.693 52.7895 172.86 52.7895 161.54C52.7895 138.914 60.3412 116.999 73.2878 100.607C86.2699 84.1698 104.967 73 126.968 73C152.876 73 172.578 87.4448 185.895 107.827C199.211 87.4458 218.913 73 244.822 73C266.824 73 285.522 84.1718 298.503 100.609C311.449 117.002 319 138.918 319 161.54C319 209.968 285.401 250.409 253.613 278.014C237.537 291.974 221.496 303.025 209.49 310.581C203.479 314.364 198.461 317.283 194.929 319.264C193.162 320.255 191.766 321.013 190.802 321.527C190.32 321.785 189.946 321.981 189.687 322.116L189.388 322.271L189.304 322.314L189.28 322.327L189.272 322.331C189.272 322.331 189.267 322.334 185.895 315.786C182.687 322.415 182.685 322.414 182.685 322.414L182.64 322.392L182.538 322.342L182.164 322.16C181.843 322.002 181.378 321.77 180.781 321.468C179.586 320.861 177.859 319.968 175.687 318.796C171.345 316.452 165.213 312.989 157.986 308.479C143.557 299.474 124.63 286.212 106.832 269.245C97.3376 260.195 88.1163 250.045 80.0582 238.875C77.6769 235.574 78.4362 230.977 81.7541 228.608C85.0719 226.239 89.6922 226.995 92.0733 230.296C99.5013 240.592 108.089 250.066 117.063 258.621C133.916 274.685 151.963 287.35 165.845 296.013C172.773 300.337 178.631 303.644 182.739 305.862C183.906 306.491 184.93 307.033 185.797 307.484C186.355 307.178 186.979 306.832 187.664 306.447C191.007 304.572 195.809 301.78 201.584 298.146C213.149 290.867 228.536 280.26 243.887 266.928C274.955 239.95 304.211 203.268 304.211 161.54C304.211 142.045 297.67 123.37 286.874 109.7C276.114 96.0757 261.42 87.7143 244.822 87.7143C221.878 87.7143 204.081 102.582 192.532 125.985L185.895 139.436L179.257 125.985C167.707 102.58 149.911 87.7143 126.968 87.7143C110.371 87.7143 95.6767 96.0742 84.9166 109.698ZM185.895 315.786L182.685 322.414L185.998 324L189.272 322.331L185.895 315.786Z" fill="white"/>
<path d="M189.272 322.331L189.28 322.327L189.304 322.314L189.388 322.271L189.687 322.116C189.946 321.981 190.32 321.785 190.802 321.527C191.766 321.013 193.162 320.255 194.929 319.264C198.461 317.283 203.479 314.364 209.49 310.581C221.496 303.025 237.537 291.974 253.613 278.014C285.401 250.409 319 209.968 319 161.54C319 138.918 311.449 117.002 298.503 100.609C285.522 84.1718 266.824 73 244.822 73C218.913 73 199.211 87.4458 185.895 107.827C172.578 87.4448 152.876 73 126.968 73C104.967 73 86.2699 84.1698 73.2878 100.607C60.3412 116.999 52.7895 138.914 52.7895 161.54C52.7895 172.86 54.4927 183.693 57.4916 193.984H38V208.698H145.851L157.771 187.615L171.695 236.102L204.301 194.393H245.053V179.679H197.067L177.911 204.184L162.255 149.67L137.202 193.984H72.9772C69.5346 183.677 67.5789 172.853 67.5789 161.54C67.5789 142.042 74.1205 123.367 84.9166 109.698C95.6767 96.0742 110.371 87.7143 126.968 87.7143C149.911 87.7143 167.707 102.58 179.257 125.985L185.895 139.436L192.532 125.985C204.081 102.582 221.878 87.7143 244.822 87.7143C261.42 87.7143 276.114 96.0757 286.874 109.7C297.67 123.37 304.211 142.045 304.211 161.54C304.211 203.268 274.955 239.95 243.887 266.928C228.536 280.26 213.149 290.867 201.584 298.146C195.809 301.78 191.007 304.572 187.664 306.447C186.979 306.832 186.355 307.178 185.797 307.484C184.93 307.033 183.906 306.491 182.739 305.862C178.631 303.644 172.773 300.337 165.845 296.013C151.963 287.35 133.916 274.685 117.063 258.621C108.089 250.066 99.5013 240.592 92.0733 230.296C89.6922 226.995 85.0719 226.239 81.7541 228.608C78.4362 230.977 77.6769 235.574 80.0582 238.875C88.1163 250.045 97.3376 260.195 106.832 269.245C124.63 286.212 143.557 299.474 157.986 308.479C165.213 312.989 171.345 316.452 175.687 318.796C177.859 319.968 179.586 320.861 180.781 321.468C181.378 321.77 181.843 322.002 182.164 322.16L182.538 322.342L182.64 322.392L182.685 322.414M189.272 322.331C189.272 322.331 189.267 322.334 185.895 315.786M189.272 322.331L185.998 324L182.685 322.414M189.272 322.331L185.895 315.786M185.895 315.786C182.687 322.415 182.685 322.414 182.685 322.414M185.895 315.786L182.685 322.414" stroke="white" stroke-width="7"/>
</svg>
